<?xml version="1.0" encoding="UTF-8"?>
<!DOCTYPE svg PUBLIC "-//W3C//DTD SVG 1.1//EN" "http://www.w3.org/Graphics/SVG/1.1/DTD/svg11.dtd">
<svg xmlns="http://www.w3.org/2000/svg" version="1.1" width="640px" height="640px" style="shape-rendering:geometricPrecision; text-rendering:geometricPrecision; image-rendering:optimizeQuality; fill-rule:evenodd; clip-rule:evenodd" xmlns:xlink="http://www.w3.org/1999/xlink">
<g><path style="opacity:1" fill="#fefffe" d="M 296.5,59.5 C 387.712,54.7109 462.879,86.7109 522,155.5C 576.879,227.231 592.546,306.898 569,394.5C 540.661,480.838 483.495,538.672 397.5,568C 300.957,594.443 215.29,574.776 140.5,509C 74.3075,442.078 48.8075,361.912 64,268.5C 83.9486,180.22 135.115,117.387 217.5,80C 243.026,69.5364 269.359,62.7031 296.5,59.5 Z M 339.5,101.5 C 412.096,109.689 467.929,144.356 507,205.5C 544.08,271.039 548.414,338.705 520,408.5C 483.441,484.223 423.274,527.223 339.5,537.5C 339.5,392.167 339.5,246.833 339.5,101.5 Z"/></g>
</svg>
